<?xml version="1.0" encoding="UTF-8"?>
<svg width="288px" height="84px" viewBox="0 0 288 84" version="1.1" xmlns="http://www.w3.org/2000/svg" xmlns:xlink="http://www.w3.org/1999/xlink">
    <!-- Generator: Sketch 42 (36781) - http://www.bohemiancoding.com/sketch -->
    <title>App Store Button</title>
    <desc>Created with Sketch.</desc>
    <defs>
        <rect id="path-1" x="0" y="0" width="288" height="84" rx="16.758"></rect>
        <mask id="mask-2" maskContentUnits="userSpaceOnUse" maskUnits="objectBoundingBox" x="0" y="0" width="288" height="84" fill="white">
            <use xlink:href="#path-1"></use>
        </mask>
    </defs>
    <g id="Page-1" stroke="none" stroke-width="1" fill="none" fill-rule="evenodd">
        <g id="Desktop-HD" transform="translate(-115.000000, -617.000000)">
            <g id="App-Store-Button" transform="translate(115.000000, 617.000000)">
                <use id="Rectangle-1" stroke="#9B9B9B" mask="url(#mask-2)" stroke-width="6.7032" xlink:href="#path-1"></use>
                <path d="M53.0601249,27.298 C58.4898339,27.298 61.9619083,32.56904 61.9619083,32.56904 C61.9619083,32.56904 56.6653874,35.4528 56.6653874,41.71564 C56.6653874,49.14892 63.3190485,51.31116 63.3190485,51.31116 C63.3190485,51.31116 58.0673063,63.81364 52.170291,63.81364 C48.8543681,63.81364 48.6327708,61.89964 44.2260837,61.89964 C40.3992239,61.89964 39.1086777,63.81364 36.1934671,63.81364 C30.6294219,63.81364 23.4418605,51.62668 23.4418605,41.71564 C23.4418605,31.42064 30.7189794,27.298 35.2806698,27.298 C39.2866445,27.298 40.9549395,29.66324 44.181305,29.66324 C46.8967336,29.66324 49.0334831,27.298 53.0601249,27.298 L53.0601249,27.298 Z M52.1266605,16.8 C52.9269369,21.846 48.3652465,28.0868 42.9137223,27.8838 C42.1122977,21.4632 47.9874977,17.13872 52.1266605,16.8 Z M93.2870784,29.9278039 L96.991261,29.9278039 L106.833803,55.200207 L103.129621,55.200207 L100.377942,47.5901697 L89.7240075,47.5901697 L86.9017731,55.200207 L83.479814,55.200207 L93.2870784,29.9278039 Z M90.7823454,44.7585279 L99.3196043,44.7585279 L95.1215307,32.9718188 L95.0509748,32.9718188 L90.7823454,44.7585279 Z M108.915201,36.9007218 L111.913825,36.9007218 L111.913825,39.3784084 L111.984381,39.3784084 C112.478274,38.3637317 113.254381,37.6263324 114.312724,37.1661883 C115.371068,36.7060442 116.535228,36.4759756 117.805239,36.4759756 C119.216364,36.4759756 120.445199,36.7355401 121.491783,37.2546771 C122.538367,37.773814 123.408547,38.4758182 124.10235,39.3607107 C124.796153,40.2456032 125.319437,41.2661639 125.672218,42.4224234 C126.024999,43.5786829 126.201387,44.8057154 126.201387,46.1035577 C126.201387,47.4014 126.030878,48.6284326 125.689857,49.7846921 C125.348835,50.9409516 124.83143,51.9497139 124.137628,52.8110093 C123.443825,53.6723046 122.573645,54.350712 121.527061,54.8462518 C120.480477,55.3417916 119.263401,55.5895578 117.875795,55.5895578 C117.428939,55.5895578 116.929174,55.5423642 116.376483,55.4479757 C115.823793,55.3535872 115.27699,55.2002081 114.73606,54.9878339 C114.195129,54.7754597 113.683604,54.4863992 113.20147,54.1206436 C112.719335,53.754888 112.313643,53.30065 111.984381,52.757916 L111.913825,52.757916 L111.913825,62.173125 L108.915201,62.173125 L108.915201,36.9007218 Z M123.026373,45.8911846 C123.026373,45.0416878 122.914661,44.2099013 122.691233,43.3958002 C122.467805,42.5816992 122.126788,41.8560982 121.668173,41.2189756 C121.209557,40.581853 120.621598,40.0745223 119.904276,39.6969681 C119.186955,39.319414 118.346172,39.1306398 117.381904,39.1306398 C116.370599,39.1306398 115.512177,39.3312124 114.806615,39.7323637 C114.101053,40.1335149 113.524853,40.6585433 113.077997,41.3074644 C112.631141,41.9563856 112.307763,42.6937849 112.107854,43.5196846 C111.907945,44.3455842 111.807991,45.1832699 111.807991,46.0327667 C111.807991,46.9294577 111.913824,47.7966394 112.125493,48.6343376 C112.337161,49.4720358 112.672298,50.2094352 113.130914,50.8465578 C113.589529,51.4836804 114.183368,51.9969103 114.912449,52.386263 C115.64153,52.7756157 116.523469,52.9702891 117.558294,52.9702891 C118.593118,52.9702891 119.457419,52.7697165 120.151222,52.3685652 C120.845024,51.967414 121.403586,51.4364864 121.826923,50.7757667 C122.250261,50.115047 122.556,49.3599501 122.74415,48.5104533 C122.932299,47.6609565 123.026373,46.7878756 123.026373,45.8911846 Z M129.835013,36.9007218 L132.833637,36.9007218 L132.833637,39.3784084 L132.904193,39.3784084 C133.398087,38.3637317 134.174193,37.6263324 135.232537,37.1661883 C136.29088,36.7060442 137.45504,36.4759756 138.725052,36.4759756 C140.136176,36.4759756 141.365011,36.7355401 142.411595,37.2546771 C143.458179,37.773814 144.328359,38.4758182 145.022162,39.3607107 C145.715965,40.2456032 146.239249,41.2661639 146.59203,42.4224234 C146.944811,43.5786829 147.121199,44.8057154 147.121199,46.1035577 C147.121199,47.4014 146.950691,48.6284326 146.609669,49.7846921 C146.268647,50.9409516 145.751243,51.9497139 145.05744,52.8110093 C144.363637,53.6723046 143.493457,54.350712 142.446873,54.8462518 C141.400289,55.3417916 140.183213,55.5895578 138.795607,55.5895578 C138.348751,55.5895578 137.848986,55.5423642 137.296295,55.4479757 C136.743605,55.3535872 136.196803,55.2002081 135.655872,54.9878339 C135.114941,54.7754597 134.603416,54.4863992 134.121282,54.1206436 C133.639148,53.754888 133.233456,53.30065 132.904193,52.757916 L132.833637,52.757916 L132.833637,62.173125 L129.835013,62.173125 L129.835013,36.9007218 Z M143.946185,45.8911846 C143.946185,45.0416878 143.834473,44.2099013 143.611045,43.3958002 C143.387617,42.5816992 143.0466,41.8560982 142.587985,41.2189756 C142.12937,40.581853 141.54141,40.0745223 140.824088,39.6969681 C140.106767,39.319414 139.265985,39.1306398 138.301716,39.1306398 C137.290411,39.1306398 136.43199,39.3312124 135.726428,39.7323637 C135.020865,40.1335149 134.444665,40.6585433 133.997809,41.3074644 C133.550953,41.9563856 133.227575,42.6937849 133.027666,43.5196846 C132.827757,44.3455842 132.727804,45.1832699 132.727804,46.0327667 C132.727804,46.9294577 132.833636,47.7966394 133.045305,48.6343376 C133.256974,49.4720358 133.592111,50.2094352 134.050726,50.8465578 C134.509341,51.4836804 135.103181,51.9969103 135.832261,52.386263 C136.561342,52.7756157 137.443282,52.9702891 138.478106,52.9702891 C139.512931,52.9702891 140.377231,52.7697165 141.071034,52.3685652 C141.764837,51.967414 142.323398,51.4364864 142.746736,50.7757667 C143.170073,50.115047 143.475812,49.3599501 143.663962,48.5104533 C143.852112,47.6609565 143.946185,46.7878756 143.946185,45.8911846 Z M175.519932,37.3254681 C175.331782,35.5084889 174.679147,34.1929684 173.562007,33.3788673 C172.444867,32.5647663 171.016125,32.1577218 169.275739,32.1577218 C168.570176,32.1577218 167.876384,32.2285121 167.194341,32.3700949 C166.512297,32.5116777 165.906699,32.7476455 165.377527,33.0780054 C164.848356,33.4083653 164.425025,33.8508049 164.107522,34.4053375 C163.790019,34.9598701 163.63127,35.6500759 163.63127,36.4759756 C163.63127,37.254681 163.860574,37.8858948 164.319189,38.369636 C164.777805,38.8533773 165.389283,39.2486233 166.153642,39.555386 C166.918001,39.8621488 167.782301,40.1158141 168.74657,40.3163898 C169.710838,40.5169654 170.69273,40.7352356 171.692277,40.9712069 C172.691823,41.2071783 173.673716,41.4844404 174.637984,41.8030017 C175.602252,42.121563 176.466553,42.5522042 177.230912,43.0949383 C177.995271,43.6376724 178.606749,44.321979 179.065364,45.1478786 C179.523979,45.9737783 179.753284,47.0120366 179.753284,48.2626846 C179.753284,49.6077212 179.453424,50.7580642 178.853696,51.7137481 C178.253969,52.669432 177.483742,53.4481257 176.542992,54.0498526 C175.602243,54.6515794 174.549795,55.0881199 173.385617,55.3594869 C172.22144,55.6308539 171.063159,55.7665354 169.910741,55.7665354 C168.499617,55.7665354 167.164949,55.5895596 165.906696,55.2356026 C164.648444,54.8816456 163.54308,54.3448188 162.590571,53.6251063 C161.638062,52.9053937 160.885474,51.9851193 160.332783,50.8642555 C159.780093,49.7433917 159.503752,48.4160729 159.503752,46.8822592 L162.678766,46.8822592 C162.678766,47.9441302 162.884552,48.8585054 163.29613,49.6254122 C163.707707,50.3923191 164.24863,51.0235329 164.918914,51.5190727 C165.589198,52.0146125 166.371185,52.3803626 167.264897,52.6163339 C168.158609,52.8523052 169.075826,52.9702891 170.016575,52.9702891 C170.769175,52.9702891 171.527643,52.8994988 172.292002,52.757916 C173.056361,52.6163332 173.744273,52.3744662 174.35576,52.0323078 C174.967248,51.6901493 175.461134,51.2241129 175.837433,50.6341846 C176.213733,50.0442563 176.40188,49.2891594 176.40188,48.3688712 C176.40188,47.4957773 176.172576,46.7878739 175.713961,46.2451398 C175.255345,45.7024058 174.643867,45.2599661 173.879508,44.9178077 C173.115149,44.5756493 172.250849,44.2983871 171.286581,44.0860129 C170.322312,43.8736387 169.34042,43.6553685 168.340873,43.4311958 C167.341327,43.207023 166.359435,42.9474584 165.395166,42.6524943 C164.430898,42.3575301 163.566597,41.9681833 162.802239,41.484442 C162.03788,41.0007008 161.426402,40.3753861 160.967786,39.6084793 C160.509171,38.8415725 160.279867,37.8800038 160.279867,36.7237442 C160.279867,35.449499 160.538569,34.3463496 161.055981,33.4142629 C161.573393,32.4821761 162.261306,31.7152808 163.11974,31.1135539 C163.978174,30.511827 164.954187,30.0634882 166.047808,29.768524 C167.141429,29.4735599 168.264432,29.32608 169.41685,29.32608 C170.710381,29.32608 171.909818,29.4794591 173.015199,29.7862218 C174.12058,30.0929845 175.090713,30.5767185 175.925628,31.2374382 C176.760543,31.8981579 177.419058,32.7299444 177.901192,33.7328226 C178.383326,34.7357007 178.647908,35.9332373 178.694946,37.3254681 L175.519932,37.3254681 Z M187.47915,36.9007218 L191.112777,36.9007218 L191.112777,39.555386 L187.47915,39.555386 L187.47915,50.9173488 C187.47915,51.2713058 187.508548,51.5544671 187.567345,51.7668413 C187.626142,51.9792155 187.737854,52.144393 187.902485,52.2623787 C188.067117,52.3803643 188.296421,52.4570539 188.590405,52.4924496 C188.884389,52.5278453 189.266563,52.5455428 189.736938,52.5455428 L191.112777,52.5455428 L191.112777,55.200207 L188.819712,55.200207 C188.043593,55.200207 187.379199,55.1471143 186.826509,55.0409272 C186.273818,54.9347401 185.826969,54.7400667 185.485947,54.4569011 C185.144926,54.1737355 184.892103,53.7725902 184.727472,53.2534533 C184.562841,52.7343164 184.480526,52.0500098 184.480526,51.200513 L184.480526,39.555386 L181.376068,39.555386 L181.376068,36.9007218 L184.480526,36.9007218 L184.480526,31.4144158 L187.47915,31.4144158 L187.47915,36.9007218 Z M193.44112,46.0681622 C193.44112,44.7231256 193.629267,43.4665971 194.005567,42.298539 C194.381867,41.130481 194.946308,40.1158195 195.698908,39.2545241 C196.451507,38.3932287 197.380484,37.7148213 198.485864,37.2192815 C199.591245,36.7237418 200.861238,36.4759756 202.295881,36.4759756 C203.754042,36.4759756 205.029915,36.7237418 206.123536,37.2192815 C207.217157,37.7148213 208.140254,38.3932287 208.892853,39.2545241 C209.645453,40.1158195 210.209894,41.130481 210.586194,42.298539 C210.962494,43.4665971 211.150641,44.7231256 211.150641,46.0681622 C211.150641,47.4131988 210.962494,48.6638281 210.586194,49.8200876 C210.209894,50.9763471 209.645453,51.9851094 208.892853,52.8464048 C208.140254,53.7077001 207.217157,54.3802083 206.123536,54.8639496 C205.029915,55.3476908 203.754042,55.5895578 202.295881,55.5895578 C200.861238,55.5895578 199.591245,55.3476908 198.485864,54.8639496 C197.380484,54.3802083 196.451507,53.7077001 195.698908,52.8464048 C194.946308,51.9851094 194.381867,50.9763471 194.005567,49.8200876 C193.629267,48.6638281 193.44112,47.4131988 193.44112,46.0681622 Z M196.616134,46.0681622 C196.616134,47.1772275 196.763124,48.162393 197.057108,49.0236883 C197.351092,49.8849837 197.756784,50.6046855 198.274197,51.1828152 C198.791609,51.760945 199.397207,52.2033846 200.09101,52.5101473 C200.784813,52.8169101 201.519762,52.9702891 202.295881,52.9702891 C203.071999,52.9702891 203.806948,52.8169101 204.500751,52.5101473 C205.194554,52.2033846 205.800152,51.760945 206.317565,51.1828152 C206.834977,50.6046855 207.240669,49.8849837 207.534653,49.0236883 C207.828637,48.162393 207.975627,47.1772275 207.975627,46.0681622 C207.975627,44.9590969 207.828637,43.9739314 207.534653,43.1126361 C207.240669,42.2513407 206.834977,41.5257397 206.317565,40.9358114 C205.800152,40.3458831 205.194554,39.8975443 204.500751,39.5907816 C203.806948,39.2840188 203.071999,39.1306398 202.295881,39.1306398 C201.519762,39.1306398 200.784813,39.2840188 200.09101,39.5907816 C199.397207,39.8975443 198.791609,40.3458831 198.274197,40.9358114 C197.756784,41.5257397 197.351092,42.2513407 197.057108,43.1126361 C196.763124,43.9739314 196.616134,44.9590969 196.616134,46.0681622 Z M214.5726,36.9007218 L217.394834,36.9007218 L217.394834,40.7588338 L217.46539,40.7588338 C218.194471,39.2722144 219.08817,38.1749642 220.146513,37.4670502 C221.204856,36.7591362 222.545404,36.4287813 224.168197,36.4759756 L224.168197,39.6615726 C222.968741,39.6615726 221.945692,39.8267501 221.099017,40.1571099 C220.252343,40.4874698 219.570309,40.9712038 219.052897,41.6083264 C218.535485,42.2454489 218.159191,43.0182435 217.924003,43.9267331 C217.688816,44.8352227 217.571224,45.8793802 217.571224,47.0592368 L217.571224,55.200207 L214.5726,55.200207 L214.5726,36.9007218 Z M241.348549,49.3953413 C240.94873,51.4482919 240.066791,52.9938809 238.702704,54.0321548 C237.338617,55.0704287 235.621775,55.5895578 233.552126,55.5895578 C232.093964,55.5895578 230.829851,55.35359 229.759749,54.8816473 C228.689646,54.4097047 227.790068,53.7489949 227.060987,52.8994981 C226.331906,52.0500013 225.785104,51.0353398 225.420563,49.8554831 C225.056023,48.6756265 224.850237,47.389602 224.8032,45.9973712 C224.8032,44.6051403 225.014865,43.3309142 225.438202,42.1746547 C225.86154,41.0183952 226.455379,40.0155321 227.219738,39.1660353 C227.984097,38.3165385 228.889555,37.6558287 229.936138,37.183886 C230.982722,36.7119434 232.129243,36.4759756 233.375737,36.4759756 C234.998529,36.4759756 236.344957,36.8122297 237.415059,37.484748 C238.485162,38.1572663 239.343583,39.0126495 239.990348,40.0509234 C240.637114,41.0891972 241.083963,42.2218426 241.33091,43.4488935 C241.577856,44.6759444 241.67781,45.843985 241.630772,46.9530503 L227.978213,46.9530503 C227.954695,47.7553528 228.048768,48.5163489 228.260437,49.2360615 C228.472105,49.955774 228.813122,50.5928871 229.283497,51.1474197 C229.753871,51.7019523 230.35359,52.1443919 231.082671,52.4747518 C231.811752,52.8051117 232.670173,52.9702891 233.65796,52.9702891 C234.927972,52.9702891 235.96866,52.6753294 236.780057,52.0854011 C237.591453,51.4954727 238.126496,50.5987951 238.385203,49.3953413 L241.348549,49.3953413 Z M238.455758,44.2983861 C238.408721,43.5904721 238.249972,42.9179639 237.979506,42.2808413 C237.709041,41.6437187 237.344506,41.0950936 236.885891,40.6349495 C236.427275,40.1748054 235.886352,39.8090553 235.263106,39.5376883 C234.639859,39.2663212 233.951946,39.1306398 233.199347,39.1306398 C232.423229,39.1306398 231.723557,39.2663212 231.10031,39.5376883 C230.477064,39.8090553 229.94202,40.1807046 229.495164,40.6526472 C229.048308,41.1245899 228.695533,41.673215 228.436826,42.298539 C228.17812,42.9238631 228.025251,43.5904721 227.978213,44.2983861 L238.455758,44.2983861 Z" id="Imported-Layers" fill="#9B9B9B"></path>
            </g>
        </g>
    </g>
</svg>