<?xml version="1.0" encoding="UTF-8"?>
<svg width="41px" height="27px" viewBox="0 0 41 27" version="1.1" xmlns="http://www.w3.org/2000/svg" xmlns:xlink="http://www.w3.org/1999/xlink">
    <!-- Generator: Sketch 42 (36781) - http://www.bohemiancoding.com/sketch -->
    <title>mail</title>
    <desc>Created with Sketch.</desc>
    <defs></defs>
    <g id="Page-1" stroke="none" stroke-width="1" fill="none" fill-rule="evenodd">
        <g id="Desktop-HD" transform="translate(-1366.000000, -70.000000)">
            <g id="Social-Media-Icons" transform="translate(1233.000000, 60.500000)">
                <g id="entypo/mail" transform="translate(130.000000, 0.000000)">
                    <rect id="Rectangle-path" x="0" y="0" width="45" height="45"></rect>
                    <path d="M4.62825,12.22425 C5.715,12.80925 20.7765,20.898 21.33675,21.1995 C21.897,21.501 22.62375,21.645 23.355,21.645 C24.08625,21.645 24.81075,21.501 25.37325,21.1995 C25.9335,20.898 40.99275,12.80925 42.0795,12.22425 C43.1685,11.63925 44.19675,9.8055 42.19875,9.8055 L4.509,9.8055 C2.511,9.8055 3.53925,11.63925 4.62825,12.22425 L4.62825,12.22425 Z M42.54075,16.67925 C41.3055,17.325 26.12925,25.2585 25.37325,25.6545 C24.61725,26.0505 24.08625,26.10225 23.355,26.10225 C22.6215,26.10225 22.09275,26.0505 21.33675,25.6545 C20.58075,25.26075 5.4045,17.325 4.16925,16.67925 C3.2985,16.22475 3.3075,16.758 3.3075,17.1675 L3.3075,33.50925 C3.3075,34.443 4.55175,35.6445 5.517,35.6445 L41.1975,35.6445 C42.16275,35.6445 43.407,34.443 43.407,33.50925 L43.407,17.1675 C43.407,16.758 43.4115,16.22475 42.54075,16.67925 L42.54075,16.67925 Z" id="Shape" fill="#9B9B9B" fill-rule="evenodd"></path>
                </g>
            </g>
        </g>
    </g>
</svg>