<?xml version="1.0" encoding="UTF-8"?>
<svg width="39px" height="40px" viewBox="0 0 39 40" version="1.1" xmlns="http://www.w3.org/2000/svg" xmlns:xlink="http://www.w3.org/1999/xlink">
    <!-- Generator: Sketch 42 (36781) - http://www.bohemiancoding.com/sketch -->
    <title>instagram</title>
    <desc>Created with Sketch.</desc>
    <defs></defs>
    <g id="Page-1" stroke="none" stroke-width="1" fill="none" fill-rule="evenodd">
        <g id="Desktop-HD" transform="translate(-1301.000000, -64.000000)">
            <g id="Social-Media-Icons" transform="translate(1233.000000, 60.500000)">
                <g id="entypo/instagram" transform="translate(65.000000, 2.500000)">
                    <rect id="Rectangle-path" x="0" y="0" width="45" height="45"></rect>
                    <path d="M34.05375,21.1005 C34.05375,27.4995 28.86525,32.6835 22.47075,32.6835 C16.07175,32.6835 10.88775,27.49725 10.88775,21.1005 C10.88775,20.33775 10.962,19.593 11.10375,18.873 L3.31425,18.873 L3.31425,34.272 C3.31425,37.5795 5.99175,40.25925 9.3015,40.25925 L35.6445,40.25925 C38.94975,40.25925 41.63175,37.5795 41.63175,34.272 L41.63175,18.873 L33.84,18.873 C33.97725,19.593 34.05375,20.33775 34.05375,21.1005 L34.05375,21.1005 Z M35.64,1.94175 L9.297,1.94175 C5.98725,1.94175 3.30975,4.6215 3.30975,7.92675 L3.30975,14.41575 L13.0095,14.41575 C15.1065,11.4525 18.56025,9.51525 22.47075,9.51525 C26.37675,9.51525 29.8305,11.45025 31.92975,14.41575 L41.6295,14.41575 L41.6295,7.92675 C41.62725,4.62375 38.94525,1.94175 35.64,1.94175 L35.64,1.94175 Z M38.56725,9.3375 C38.56725,9.927 38.088,10.40625 37.4985,10.40625 L34.29,10.40625 C33.70275,10.40625 33.22125,9.927 33.22125,9.3375 L33.22125,6.129 C33.22125,5.5395 33.70275,5.058 34.29,5.058 L37.4985,5.058 C38.08575,5.058 38.56725,5.5395 38.56725,6.129 L38.56725,9.3375 L38.56725,9.3375 Z M29.5965,21.1005 C29.5965,17.163 26.406,13.97025 22.4685,13.97025 C18.531,13.97025 15.3405,17.163 15.3405,21.1005 C15.3405,25.038 18.531,28.2285 22.4685,28.2285 C26.406,28.2285 29.5965,25.038 29.5965,21.1005 L29.5965,21.1005 Z" id="Shape" fill="#9B9B9B" fill-rule="evenodd"></path>
                </g>
            </g>
        </g>
    </g>
</svg>