<?xml version="1.0" encoding="UTF-8"?>
<svg width="39px" height="39px" viewBox="0 0 39 39" version="1.1" xmlns="http://www.w3.org/2000/svg" xmlns:xlink="http://www.w3.org/1999/xlink">
    <!-- Generator: Sketch 42 (36781) - http://www.bohemiancoding.com/sketch -->
    <title>facebook3</title>
    <desc>Created with Sketch.</desc>
    <defs></defs>
    <g id="Page-1" stroke="none" stroke-width="1" fill="none" fill-rule="evenodd">
        <g id="Desktop-HD" transform="translate(-1236.000000, -65.000000)">
            <g id="Social-Media-Icons" transform="translate(1233.000000, 60.500000)">
                <g id="entypo/facebook3" transform="translate(0.000000, 0.500000)">
                    <rect id="Rectangle-path" x="0" y="0" width="45" height="45"></rect>
                    <path d="M36.8775,4.16925 L8.1405,4.16925 C5.50575,4.16925 3.35025,6.3225 3.35025,8.95725 L3.35025,37.69425 C3.35025,40.329 5.50575,42.4845 8.1405,42.4845 L22.6755,42.4845 L22.6755,28.746 L18.0855,28.746 L18.0855,22.761 L22.6755,22.761 L22.6755,19.76175 C22.6755,15.14025 26.08875,11.52 30.44475,11.52 L34.67475,11.52 L34.67475,18.279 L30.89025,18.279 C29.90025,18.279 29.61,18.84825 29.61,19.63575 L29.61,22.76325 L34.67475,22.76325 L34.67475,28.74825 L29.61,28.74825 L29.61,42.48675 L36.8775,42.48675 C39.51225,42.48675 41.66775,40.33125 41.66775,37.6965 L41.66775,8.955 C41.66775,6.3225 39.51225,4.16925 36.8775,4.16925 L36.8775,4.16925 Z" id="Shape" fill="#9B9B9B" fill-rule="evenodd"></path>
                </g>
            </g>
        </g>
    </g>
</svg>